

<svg width="300" height="240.95" version="1.1" viewBox="0 0 300 240.95" xml:space="preserve" xmlns="http://www.w3.org/2000/svg"><g transform="matrix(1.3333 0 0 -1.3333 -486.69 345.62)"><g transform="matrix(1.6837 0 0 1.6837 -243.92 -49.152)"><g fill="#fff"><path d="m383.76 110.11v-0.854h0.226c0.178 0 0.304 0.03 0.376 0.09 0.086 0.07 0.129 0.183 0.129 0.338 0 0.174-0.055 0.294-0.167 0.36-0.075 0.044-0.197 0.066-0.366 0.066zm-0.665 0.579h0.919c0.326 0 0.576-0.051 0.75-0.151 0.137-0.08 0.241-0.193 0.313-0.339 0.077-0.156 0.115-0.327 0.115-0.51 0-0.244-0.062-0.458-0.186-0.64-0.095-0.139-0.213-0.236-0.352-0.29-0.14-0.054-0.343-0.081-0.609-0.081h-0.285v-1.199h-0.665z"></path><path d="m394.58 110.69v-3.21h-0.665v1.385h-1.315v-1.385h-0.666v3.21h0.666v-1.279h1.315v1.279z"></path><path d="m402.16 107.48h-0.665v3.21h0.665z"></path><path d="m409.69 110.69v-2.631h1.016v-0.579h-1.681v3.21z"></path><path d="m418.8 109.84-0.44-1.157h0.837zm0.329 0.847 1.256-3.21h-0.715l-0.263 0.66h-1.258l-0.268-0.66h-0.699l1.293 3.21z"></path><path d="m427.63 110.11v-2.053h0.285c0.186 0 0.337 0.015 0.451 0.045 0.114 0.029 0.212 0.08 0.292 0.15 0.098 0.088 0.172 0.202 0.221 0.341 0.055 0.155 0.082 0.319 0.082 0.492 0 0.254-0.053 0.465-0.16 0.635-0.089 0.145-0.203 0.247-0.341 0.304s-0.335 0.086-0.593 0.086zm-0.665 0.579h0.877c0.377 0 0.651-0.024 0.82-0.071 0.367-0.105 0.639-0.331 0.814-0.677 0.124-0.246 0.186-0.532 0.186-0.856 0-0.54-0.161-0.956-0.482-1.249-0.154-0.143-0.316-0.238-0.487-0.286s-0.43-0.071-0.776-0.071h-0.952z"></path><path d="m438.21 110.69v-0.579h-1.108v-0.707h1.085v-0.579h-1.085v-0.766h1.108v-0.579h-1.773v3.21z"></path><path d="m445.68 110.69v-2.631h1.016v-0.579h-1.681v3.21z"></path><path d="m454.06 110.11v-0.854h0.226c0.178 0 0.304 0.03 0.376 0.09 0.086 0.07 0.129 0.183 0.129 0.338 0 0.174-0.055 0.294-0.167 0.36-0.075 0.044-0.197 0.066-0.366 0.066zm-0.665 0.579h0.919c0.326 0 0.576-0.051 0.75-0.151 0.137-0.08 0.241-0.193 0.313-0.339 0.077-0.156 0.115-0.327 0.115-0.51 0-0.244-0.062-0.458-0.186-0.64-0.095-0.139-0.213-0.236-0.352-0.29-0.14-0.054-0.343-0.081-0.609-0.081h-0.285v-1.199h-0.665z"></path><path d="m464.88 110.69v-3.21h-0.665v1.385h-1.315v-1.385h-0.666v3.21h0.666v-1.279h1.315v1.279z"></path><path d="m472.46 107.48h-0.665v3.21h0.665z"></path><path d="m480.68 109.84-0.44-1.157h0.837zm0.329 0.847 1.256-3.21h-0.715l-0.263 0.66h-1.258l-0.268-0.66h-0.699l1.293 3.21z"></path><path d="m429.73 155.24h14.261c0.447-0.013 1.956-0.184 1.889-1.885v-1.838l-2.487-2.488c-0.081-0.011-0.164-0.021-0.25-0.03h-13.413zm20.1 7.582h-28.574v-13.907h-11.871l11.829-7.623 0.084-14.619 8.432 7.791v6.786l16.82-0.044 7.182 7.181v10.748s0.372 3.76-3.902 3.687"></path></g><path d="m419.36 158.26c-2.32 5.727-2.756 10.514-1.019 13.296h-3e-3c-2.267 0.19-4.844-0.913-4.844-0.913 6.679 5.792 14.616 2.732 14.616 2.732l-2e-3 -2e-3c4.266-1.346 9.332-4.389 14.42-8.659h3.483c-11.611 11.5-24.201 17.993-30.503 15.047-6.281-2.937-4.358-14.336 3.852-27.339z" fill="#f99e29"></path><path d="m466.96 128.76c-0.014 0.497-0.062 1.15-0.184 1.961-0.017 3e-3 -0.034 6e-3 -0.051 9e-3 -0.353 2.405-1.154 5.121-2.375 8.044-1.059 2.506-2.539 5.442-4.602 8.817 0 0 1e-3 1e-3 2e-3 3e-3 0.465 0.586 0.903 1.165 1.313 1.736 0.967 1.372 2.281 3.439 3.276 5.767 1.372 3.468 1.228 6.331-0.734 8.149-2.303 2.132-6.756 2.498-12.407 1.379 0.85-0.139 1.523-0.415 2.053-0.739 4.176 0.803 8.469 0.458 10.109-1.996 2.754-4.124-4.393-13.063-4.393-13.063-0.125 0.198-0.254 0.398-0.386 0.601-0.195 0.297-0.394 0.596-0.596 0.895-0.778 1.148-1.614 2.304-2.348 3.293v-2.733c1.405-1.959 2.28-3.349 2.258-3.378-1.476-1.921-3.665-4.047-5.739-5.892-1.225-1.107-2.536-2.216-3.927-3.318-2e-3 1e-3 -4e-3 2e-3 -5e-3 4e-3 -1.124-0.901-1.858-1.453-1.858-1.453l-9e-3 6e-3c-0.976-0.731-1.987-1.458-3.03-2.177-0.435-0.3-0.872-0.593-1.309-0.884-0.537 0.553-1.254 0.951-2.094 1.094-2.115 0.359-4.183-1.017-4.618-3.075-0.149-0.703-0.084-1.392 0.145-2.012-12.276-6.783-23.909-9.472-28.409-6.178l-0.132-0.633c-0.371-1.968 0.362-4.325 0.362-4.325-2.825 4.029-2.506 8.177-1.89 10.685 0.872 3.797 4.268 8.699 9.54 13.749l-1.976 1.274c-12.05-10.31-17.803-20.684-13.096-25.043 5.117-4.739 20.857-0.754 36.756 8.876 0.484-0.383 1.074-0.655 1.74-0.768 2.115-0.359 4.182 1.017 4.618 3.074 0.132 0.623 0.097 1.236-0.072 1.799 1.858 1.305 3.622 2.631 5.286 3.964 3e-3 -3e-3 7e-3 -5e-3 0.011-8e-3 0.447 0.364 0.881 0.725 1.303 1.081l1e-3 1e-3c4.999 4.221 8.183 7.785 8.986 8.712 0.064 0.075 0.129 0.15 0.193 0.225 5e-3 6e-3 7e-3 9e-3 7e-3 9e-3 2.001-3.158 3.407-5.943 4.389-8.348 1.034-2.497 1.714-4.821 2.018-6.885-0.011 2e-3 -0.022 5e-3 -0.033 7e-3 0.11-0.735 0.167-1.378 0.19-1.928 6e-3 -1e-3 0.012-3e-3 0.018-4e-3 0.011-0.373 7e-3 -0.733-0.012-1.082-0.033-0.889-0.151-1.338-0.151-1.338l-7e-3 2e-3c-0.385-2.026-1.404-3.526-3.107-4.321-2.812-1.315-7.043-0.497-11.85 1.94l-1e-3 -2e-3s-2.506 1.161-7.463 3.985c0 0 1.35-1.777 6.232-4.788 5.82-3.111 10.954-4.217 14.308-2.649 2.396 1.12 3.598 3.471 3.714 6.673l-0.011 5e-3s6e-3 0.035 0.014 0.105c0.01 0.358 7e-3 0.726-0.01 1.105 0.014-3e-3 0.029-6e-3 0.043-9e-3" fill="#f99e29"></path><g fill="#fff"><path d="m393.5 99.346c0.832 0 0.827 5e-3 1.428 0.548l4.681 4.684c0.088 0.092 0.169 0.136 0.072 0.247h-26.274v-10.169h-8.389c-0.019-0.158 0.514-0.486 0.514-0.486l7.875-5.008v-10.658c0.119 0 0.323 0.206 0.323 0.206l5.34 5.345c0.308 0.342 0.308 0.442 0.308 0.719v4.388h7.912c0.497 0 0.601 0.049 1.014 0.368l4.828 4.819c0.085 0.092 0.155 0.169 0.105 0.286-0.638 0.016-13.859 0.021-13.859 0.021v4.69z"></path><path d="m486.69 104.82v-11.84l-11.049 11.84h-5.526c-4e-3 -0.243 0-20.05 0-20.05h5.526v11.715c3.65-3.876 7.419-7.863 11.049-11.715h5.282v20.05z"></path><path d="m416.57 90.477 3e-3 14.348h-5.535l2e-3 -11.923c0.018-0.236-0.07-0.422-0.217-0.599l-2.003-1.978c-0.123-0.046-0.26-0.025-0.359-0.025-2.595 6e-3 -5.191 0.012-7.786 0.02-0.019 0-0.04 7e-3 -0.056 0.017-0.017 9e-3 -0.049 0.033-0.104 0.085v12.353c0 0.165-0.024 0.208-0.18 0.245l-5.475-5.497v-12.761l16.037 0.012c0.337 0 0.595 8e-3 0.83 0.3l4.58 4.639c0.209 0.253 0.266 0.404 0.263 0.764"></path><path d="m462.52 99.225 0.097-0.09s-1e-3 -4.794-1e-3 -6.673l-2.148-2.17s-5.473-7e-3 -8.068 0l-0.159 0.128s-4e-3 0.386-4e-3 0.601c-1e-3 1.879 4e-3 3.71 4e-3 5.588l2.618 2.617zm-10.142 5.252-5.534-5.616c-0.192-0.234-0.263-0.469-0.263-0.764l-2e-3 -13.322h16.043c0.337-1e-3 0.592 8e-3 0.826 0.3l4.581 4.589c0.192 0.233 0.263 0.468 0.263 0.763v14.398h-15.082c-0.337 1e-3 -0.598-0.057-0.832-0.348"></path><path d="m438.06 98.363c-0.072-0.051-0.071-0.162-0.071-0.162-3e-3 -4.132 2e-3 -13.426 2e-3 -13.426h6.685v20.05c-0.072 0-0.139-6e-3 -0.208-0.048z"></path><path d="m436.29 104.68c2e-3 7e-3 0 0.148-0.117 0.148-0.02 0-18.157-1e-3 -18.228 0v-5.667s5.827-5.093 6.991-6.098c1.175-1.015 2.359-2.022 3.539-3.032-0.012-0.042-0.03-0.104-0.043-0.146h-9.669l-4.855-4.861c-0.11-0.143-0.11-0.246-0.11-0.246l22.492-1e-3v5.383c3e-3 0.316-0.11 0.51-0.337 0.708l-9.564 8.359c-0.094 0.084-0.268 0.201-0.243 0.409 0 0 7.969-4e-3 9.946 0 0 0 0.096-8e-3 0.151 0.07 0.054 0.067 0.047 0.127 0.047 0.184 4e-3 1.498 0 4.79 0 4.79"></path></g></g></g></svg>
